<svg width="18" height="18" viewBox="0 0 14 14" fill="none" xmlns="http://www.w3.org/2000/svg">
    <path d="M0.0996094 14V0.582031H13.6836V3.44336H3.82031V5.66016H13.1758V8.52148H3.82031V11.1387H13.8203V14H0.0996094Z" fill="white"/>
    <path d="M0.0996094 14V0.582031H13.6836V3.44336H3.82031V5.66016H13.1758V8.52148H3.82031V11.1387H13.8203V14H0.0996094Z" fill="#1877F2"/>
    <path d="M10.9766 7.11523L17.3438 14H12.998L8.79883 9.47852L4.61914 14H0.283203L6.64062 7.11523L0.595703 0.582031H4.94141L8.79883 4.78125L12.6758 0.582031H17.0215L10.9766 7.11523Z" fill="white"/>
    <path d="M10.9766 7.11523L17.3438 14H12.998L8.79883 9.47852L4.61914 14H0.283203L6.64062 7.11523L0.595703 0.582031H4.94141L8.79883 4.78125L12.6758 0.582031H17.0215L10.9766 7.11523Z" fill="#1877F2"/>
</svg>
