<svg width="23" height="16" viewBox="0 0 23 16" fill="none" xmlns="http://www.w3.org/2000/svg">
<path d="M1 5.5V3C1 1.89543 1.89543 1 3 1H5.5C6.60457 1 7.5 1.89543 7.5 3V5.5C7.5 6.60457 6.60457 7.5 5.5 7.5H3C1.89543 7.5 1 6.60457 1 5.5Z" stroke="white"/>
<path d="M9 13V11C9 10.4477 9.44772 10 10 10H21C21.5523 10 22 10.4477 22 11V13C22 13.5523 21.5523 14 21 14H10C9.44772 14 9 13.5523 9 13Z" stroke="white"/>
<path d="M1 13.5V11C1 9.89543 1.89543 9 3 9H5.5C6.60457 9 7.5 9.89543 7.5 11V13.5C7.5 14.6046 6.60457 15.5 5.5 15.5H3C1.89543 15.5 1 14.6046 1 13.5Z" stroke="white"/>
<path d="M9 5V3C9 2.44772 9.44772 2 10 2H21C21.5523 2 22 2.44772 22 3V5C22 5.55228 21.5523 6 21 6H10C9.44772 6 9 5.55228 9 5Z" stroke="white"/>
</svg>
