<svg width="16" height="16" viewBox="0 0 16 16" fill="none" xmlns="http://www.w3.org/2000/svg">
<path d="M1 5.5V3C1 1.89543 1.89543 1 3 1H5.5C6.60457 1 7.5 1.89543 7.5 3V5.5C7.5 6.60457 6.60457 7.5 5.5 7.5H3C1.89543 7.5 1 6.60457 1 5.5Z" stroke="white" stroke-opacity="0.4"/>
<path d="M9 13.5V11C9 9.89543 9.89543 9 11 9H13.5C14.6046 9 15.5 9.89543 15.5 11V13.5C15.5 14.6046 14.6046 15.5 13.5 15.5H11C9.89543 15.5 9 14.6046 9 13.5Z" stroke="white" stroke-opacity="0.4"/>
<path d="M1 13.5V11C1 9.89543 1.89543 9 3 9H5.5C6.60457 9 7.5 9.89543 7.5 11V13.5C7.5 14.6046 6.60457 15.5 5.5 15.5H3C1.89543 15.5 1 14.6046 1 13.5Z" stroke="white" stroke-opacity="0.4"/>
<path d="M9 5.5V3C9 1.89543 9.89543 1 11 1H13.5C14.6046 1 15.5 1.89543 15.5 3V5.5C15.5 6.60457 14.6046 7.5 13.5 7.5H11C9.89543 7.5 9 6.60457 9 5.5Z" stroke="white" stroke-opacity="0.4"/>
</svg>
