<svg class="col-9 m-auto" viewBox="0 0 152 147" fill="none" xmlns="http://www.w3.org/2000/svg">
    <path d="M151.827 73.4999C151.827 32.9028 117.843 0 75.9133 0C33.9832 0 0 32.9028 0 73.4999C0 110.193 27.7558 140.597 64.0519 146.11V94.746H44.7768V73.4999H64.0519V57.307C64.0519 38.8888 75.3797 28.7109 92.7269 28.7109C101.03 28.7109 109.718 30.1464 109.718 30.1464V48.2343H100.14C90.7104 48.2343 87.7748 53.9048 87.7748 59.7187V73.4999H108.829L105.463 94.746H87.7748V146.11C124.071 140.597 151.827 110.193 151.827 73.4999Z"
          fill="#1877F2"/>
    <path d="M105.462 94.7463L108.827 73.5002H87.7733V59.719C87.7733 53.9051 90.709 48.2346 100.139 48.2346H109.717V30.1467C109.717 30.1467 101.028 28.7112 92.7254 28.7112C75.3783 28.7112 64.0504 38.8891 64.0504 57.3072V73.5002H44.7754V94.7463H64.0504V146.11C67.9201 146.699 71.879 147 75.9119 147C79.9448 147 83.9037 146.699 87.7733 146.11V94.7463H105.462Z"
          fill="white"/>
</svg>